<svg width="20" height="20" viewBox="0 0 20 20" fill="none" xmlns="http://www.w3.org/2000/svg">
<path d="M17.5 3.33337H2.5C1.83696 3.33337 1.20107 3.59677 0.732233 4.06561C0.263392 4.53445 0 5.17033 0 5.83337V14.1667C0 14.8298 0.263392 15.4656 0.732233 15.9345C1.20107 16.4033 1.83696 16.6667 2.5 16.6667H17.5C18.163 16.6667 18.7989 16.4033 19.2678 15.9345C19.7366 15.4656 20 14.8298 20 14.1667V5.83337C20 5.17033 19.7366 4.53445 19.2678 4.06561C18.7989 3.59677 18.163 3.33337 17.5 3.33337ZM17.5 5.00004L10 10.4167L2.5 5.00004H17.5ZM17.5 15H2.5C2.27899 15 2.06702 14.9122 1.91074 14.756C1.75446 14.5997 1.66667 14.3877 1.66667 14.1667V5.95837L10 11.875L18.3333 5.95837V14.1667C18.3333 14.3877 18.2455 14.5997 18.0893 14.756C17.933 14.9122 17.721 15 17.5 15Z" fill="#00a870"/>
</svg>
